<mxfile host="app.diagrams.net" modified="2021-09-03T00:40:59.994Z" agent="5.0 (Windows NT 6.2; Win64; x64) AppleWebKit/537.36 (KHTML, like Gecko) Chrome/92.0.4515.159 Safari/537.36" etag="gwvEkBj4vJ0lfF08mfSj" version="14.9.8" type="github">
  <diagram id="VjKDbfcUB5f3F2IPD83_" name="Page-1">
    <mxGraphModel dx="2272" dy="762" grid="1" gridSize="10" guides="1" tooltips="1" connect="1" arrows="1" fold="1" page="1" pageScale="1" pageWidth="850" pageHeight="1100" math="0" shadow="0">
      <root>
        <mxCell id="0" />
        <mxCell id="1" parent="0" />
        <mxCell id="Zp3gZsn9r_thfgqdzpRH-13" style="edgeStyle=orthogonalEdgeStyle;rounded=0;orthogonalLoop=1;jettySize=auto;html=1;exitX=1;exitY=0.5;exitDx=0;exitDy=0;entryX=0;entryY=0.5;entryDx=0;entryDy=0;" parent="1" source="Zp3gZsn9r_thfgqdzpRH-1" target="Zp3gZsn9r_thfgqdzpRH-3" edge="1">
          <mxGeometry relative="1" as="geometry" />
        </mxCell>
        <mxCell id="Zp3gZsn9r_thfgqdzpRH-1" value="Business value proposition of an API or microservices" style="rounded=0;whiteSpace=wrap;html=1;" parent="1" vertex="1">
          <mxGeometry x="230" y="70" width="120" height="60" as="geometry" />
        </mxCell>
        <mxCell id="Zp3gZsn9r_thfgqdzpRH-23" value="" style="edgeStyle=orthogonalEdgeStyle;rounded=0;orthogonalLoop=1;jettySize=auto;html=1;" parent="1" source="Zp3gZsn9r_thfgqdzpRH-3" target="Zp3gZsn9r_thfgqdzpRH-4" edge="1">
          <mxGeometry relative="1" as="geometry" />
        </mxCell>
        <mxCell id="Zp3gZsn9r_thfgqdzpRH-3" value="Value proposition turn into a roadmap to indicate an incremental way of building APIs and providing business&amp;nbsp; values to our customer and the orgnization" style="rounded=0;whiteSpace=wrap;html=1;" parent="1" vertex="1">
          <mxGeometry x="380" y="45" width="170" height="110" as="geometry" />
        </mxCell>
        <mxCell id="Zp3gZsn9r_thfgqdzpRH-17" style="edgeStyle=orthogonalEdgeStyle;rounded=0;orthogonalLoop=1;jettySize=auto;html=1;exitX=0.5;exitY=1;exitDx=0;exitDy=0;" parent="1" source="Zp3gZsn9r_thfgqdzpRH-4" target="Zp3gZsn9r_thfgqdzpRH-7" edge="1">
          <mxGeometry relative="1" as="geometry" />
        </mxCell>
        <mxCell id="Zp3gZsn9r_thfgqdzpRH-4" value="Understand the roles of asset owners, providers, and developers in the API value chain" style="rounded=0;whiteSpace=wrap;html=1;" parent="1" vertex="1">
          <mxGeometry x="585" y="60" width="130" height="80" as="geometry" />
        </mxCell>
        <mxCell id="Zp3gZsn9r_thfgqdzpRH-19" style="edgeStyle=orthogonalEdgeStyle;rounded=0;orthogonalLoop=1;jettySize=auto;html=1;exitX=0;exitY=0.5;exitDx=0;exitDy=0;entryX=1;entryY=0.5;entryDx=0;entryDy=0;" parent="1" source="Zp3gZsn9r_thfgqdzpRH-5" target="Zp3gZsn9r_thfgqdzpRH-6" edge="1">
          <mxGeometry relative="1" as="geometry" />
        </mxCell>
        <mxCell id="Zp3gZsn9r_thfgqdzpRH-5" value="Designing, implementing, and marketing API product" style="rounded=0;whiteSpace=wrap;html=1;" parent="1" vertex="1">
          <mxGeometry x="585" y="280" width="130" height="80" as="geometry" />
        </mxCell>
        <mxCell id="Zp3gZsn9r_thfgqdzpRH-20" style="edgeStyle=orthogonalEdgeStyle;rounded=0;orthogonalLoop=1;jettySize=auto;html=1;exitX=0;exitY=0.5;exitDx=0;exitDy=0;entryX=1;entryY=0.5;entryDx=0;entryDy=0;" parent="1" source="Zp3gZsn9r_thfgqdzpRH-6" target="Zp3gZsn9r_thfgqdzpRH-8" edge="1">
          <mxGeometry relative="1" as="geometry" />
        </mxCell>
        <mxCell id="Zp3gZsn9r_thfgqdzpRH-6" value="Diverse an effective process for security and user management" style="rounded=0;whiteSpace=wrap;html=1;" parent="1" vertex="1">
          <mxGeometry x="405" y="290" width="120" height="60" as="geometry" />
        </mxCell>
        <mxCell id="Zp3gZsn9r_thfgqdzpRH-18" style="edgeStyle=orthogonalEdgeStyle;rounded=0;orthogonalLoop=1;jettySize=auto;html=1;exitX=0.5;exitY=1;exitDx=0;exitDy=0;entryX=0.5;entryY=0;entryDx=0;entryDy=0;" parent="1" source="Zp3gZsn9r_thfgqdzpRH-7" target="Zp3gZsn9r_thfgqdzpRH-5" edge="1">
          <mxGeometry relative="1" as="geometry" />
        </mxCell>
        <mxCell id="Zp3gZsn9r_thfgqdzpRH-7" value="Discover the API life cycle" style="rounded=0;whiteSpace=wrap;html=1;" parent="1" vertex="1">
          <mxGeometry x="590" y="180" width="120" height="60" as="geometry" />
        </mxCell>
        <mxCell id="Zp3gZsn9r_thfgqdzpRH-21" value="" style="edgeStyle=orthogonalEdgeStyle;rounded=0;orthogonalLoop=1;jettySize=auto;html=1;" parent="1" source="Zp3gZsn9r_thfgqdzpRH-8" target="Zp3gZsn9r_thfgqdzpRH-9" edge="1">
          <mxGeometry relative="1" as="geometry" />
        </mxCell>
        <mxCell id="Zp3gZsn9r_thfgqdzpRH-8" value="Manage traffic and user experience with a reliable operating model" style="rounded=0;whiteSpace=wrap;html=1;" parent="1" vertex="1">
          <mxGeometry x="230" y="290" width="120" height="60" as="geometry" />
        </mxCell>
        <mxCell id="Zp3gZsn9r_thfgqdzpRH-9" value="Determine the metrics you need to measure your API&#39;s success" style="rounded=0;whiteSpace=wrap;html=1;" parent="1" vertex="1">
          <mxGeometry x="80" y="290" width="120" height="60" as="geometry" />
        </mxCell>
        <mxCell id="Zp3gZsn9r_thfgqdzpRH-12" style="edgeStyle=orthogonalEdgeStyle;rounded=0;orthogonalLoop=1;jettySize=auto;html=1;exitX=1;exitY=0.5;exitDx=0;exitDy=0;entryX=0;entryY=0.5;entryDx=0;entryDy=0;" parent="1" source="Zp3gZsn9r_thfgqdzpRH-11" target="Zp3gZsn9r_thfgqdzpRH-1" edge="1">
          <mxGeometry relative="1" as="geometry" />
        </mxCell>
        <mxCell id="Zp3gZsn9r_thfgqdzpRH-11" value="Create API strategies to deliver business value" style="rounded=0;whiteSpace=wrap;html=1;" parent="1" vertex="1">
          <mxGeometry x="80" y="70" width="120" height="60" as="geometry" />
        </mxCell>
        <mxCell id="qivLNx8RzRdKDx-Srp8b-2" value="" style="rounded=0;whiteSpace=wrap;html=1;align=left;" parent="1" vertex="1">
          <mxGeometry x="120" y="520" width="650" height="90" as="geometry" />
        </mxCell>
        <mxCell id="qivLNx8RzRdKDx-Srp8b-3" value="IB" style="rounded=1;whiteSpace=wrap;html=1;" parent="1" vertex="1">
          <mxGeometry x="150" y="550" width="80" height="50" as="geometry" />
        </mxCell>
        <mxCell id="qivLNx8RzRdKDx-Srp8b-4" value="BWB Team" style="rounded=1;whiteSpace=wrap;html=1;strokeColor=#2D7600;verticalAlign=top;fontColor=#FFFFFF;fillColor=#00CC00;" parent="1" vertex="1">
          <mxGeometry x="405" y="545" width="100" height="60" as="geometry" />
        </mxCell>
        <mxCell id="qivLNx8RzRdKDx-Srp8b-5" value="Salesforce Team" style="rounded=1;whiteSpace=wrap;html=1;strokeColor=#2D7600;verticalAlign=top;fontColor=#FCFCFC;fillColor=#00CC00;" parent="1" vertex="1">
          <mxGeometry x="540" y="545" width="130" height="60" as="geometry" />
        </mxCell>
        <mxCell id="qivLNx8RzRdKDx-Srp8b-6" value="goMoney" style="rounded=1;whiteSpace=wrap;html=1;" parent="1" vertex="1">
          <mxGeometry x="280" y="550" width="80" height="50" as="geometry" />
        </mxCell>
        <mxCell id="qivLNx8RzRdKDx-Srp8b-7" value="IB Team" style="rounded=1;whiteSpace=wrap;html=1;strokeColor=#2D7600;verticalAlign=top;fontColor=#FCFCFC;fillColor=#00CC00;" parent="1" vertex="1">
          <mxGeometry x="150" y="545" width="80" height="60" as="geometry" />
        </mxCell>
        <mxCell id="qivLNx8RzRdKDx-Srp8b-8" value="goMoney Team" style="rounded=1;whiteSpace=wrap;html=1;strokeColor=#2D7600;verticalAlign=top;fontColor=#F7F7F7;fillColor=#00CC00;" parent="1" vertex="1">
          <mxGeometry x="270" y="545" width="100" height="60" as="geometry" />
        </mxCell>
        <mxCell id="qivLNx8RzRdKDx-Srp8b-9" value="Tier-5 (Front-end/Front-office/Market-facing systems)" style="text;html=1;strokeColor=none;fillColor=none;align=center;verticalAlign=middle;whiteSpace=wrap;rounded=0;fontStyle=1" parent="1" vertex="1">
          <mxGeometry x="120" y="520" width="310" height="20" as="geometry" />
        </mxCell>
        <mxCell id="qivLNx8RzRdKDx-Srp8b-11" value="" style="rounded=0;whiteSpace=wrap;html=1;align=left;" parent="1" vertex="1">
          <mxGeometry x="120" y="640" width="450" height="90" as="geometry" />
        </mxCell>
        <mxCell id="qivLNx8RzRdKDx-Srp8b-12" value="Tier-4A (Business API Platform Composed of Business Aligned Capabilities)" style="text;html=1;strokeColor=none;fillColor=none;align=center;verticalAlign=middle;whiteSpace=wrap;rounded=0;fontStyle=1" parent="1" vertex="1">
          <mxGeometry x="120" y="640" width="440" height="20" as="geometry" />
        </mxCell>
        <mxCell id="qivLNx8RzRdKDx-Srp8b-13" value="" style="rounded=0;whiteSpace=wrap;html=1;align=left;" parent="1" vertex="1">
          <mxGeometry x="120" y="900" width="450" height="90" as="geometry" />
        </mxCell>
        <mxCell id="qivLNx8RzRdKDx-Srp8b-14" value="" style="rounded=0;whiteSpace=wrap;html=1;align=left;" parent="1" vertex="1">
          <mxGeometry x="580" y="900" width="190" height="90" as="geometry" />
        </mxCell>
        <mxCell id="qivLNx8RzRdKDx-Srp8b-15" value="" style="rounded=0;whiteSpace=wrap;html=1;align=left;" parent="1" vertex="1">
          <mxGeometry x="580" y="640" width="190" height="90" as="geometry" />
        </mxCell>
        <mxCell id="qivLNx8RzRdKDx-Srp8b-16" value="Tier-4B (Legacy)" style="text;html=1;strokeColor=none;fillColor=none;align=center;verticalAlign=middle;whiteSpace=wrap;rounded=0;fontStyle=1" parent="1" vertex="1">
          <mxGeometry x="580" y="640" width="115" height="20" as="geometry" />
        </mxCell>
        <mxCell id="qivLNx8RzRdKDx-Srp8b-18" value="Tier-2B (Legacy)" style="text;html=1;strokeColor=none;fillColor=none;align=center;verticalAlign=middle;whiteSpace=wrap;rounded=0;fontStyle=1" parent="1" vertex="1">
          <mxGeometry x="580" y="900" width="115" height="20" as="geometry" />
        </mxCell>
        <mxCell id="qivLNx8RzRdKDx-Srp8b-19" value="Tier-2A (Higher order infrastructure)" style="text;html=1;strokeColor=none;fillColor=none;align=left;verticalAlign=middle;whiteSpace=wrap;rounded=0;fontStyle=1" parent="1" vertex="1">
          <mxGeometry x="120" y="900" width="220" height="20" as="geometry" />
        </mxCell>
        <mxCell id="qivLNx8RzRdKDx-Srp8b-20" value="" style="ellipse;whiteSpace=wrap;html=1;aspect=fixed;fillColor=#000000;" parent="1" vertex="1">
          <mxGeometry x="160" y="580" width="20" height="20" as="geometry" />
        </mxCell>
        <mxCell id="qivLNx8RzRdKDx-Srp8b-23" value="" style="ellipse;whiteSpace=wrap;html=1;aspect=fixed;fillColor=#000000;" parent="1" vertex="1">
          <mxGeometry x="190" y="580" width="20" height="20" as="geometry" />
        </mxCell>
        <mxCell id="qivLNx8RzRdKDx-Srp8b-24" value="" style="ellipse;whiteSpace=wrap;html=1;aspect=fixed;fillColor=#000000;" parent="1" vertex="1">
          <mxGeometry x="290" y="580" width="20" height="20" as="geometry" />
        </mxCell>
        <mxCell id="qivLNx8RzRdKDx-Srp8b-25" value="" style="ellipse;whiteSpace=wrap;html=1;aspect=fixed;fillColor=#000000;" parent="1" vertex="1">
          <mxGeometry x="330" y="580" width="20" height="20" as="geometry" />
        </mxCell>
        <mxCell id="qivLNx8RzRdKDx-Srp8b-26" value="" style="ellipse;whiteSpace=wrap;html=1;aspect=fixed;fillColor=#000000;" parent="1" vertex="1">
          <mxGeometry x="415" y="580" width="20" height="20" as="geometry" />
        </mxCell>
        <mxCell id="qivLNx8RzRdKDx-Srp8b-27" value="" style="ellipse;whiteSpace=wrap;html=1;aspect=fixed;fillColor=#000000;" parent="1" vertex="1">
          <mxGeometry x="445" y="580" width="20" height="20" as="geometry" />
        </mxCell>
        <mxCell id="qivLNx8RzRdKDx-Srp8b-28" value="" style="ellipse;whiteSpace=wrap;html=1;aspect=fixed;fillColor=#000000;" parent="1" vertex="1">
          <mxGeometry x="480" y="580" width="20" height="20" as="geometry" />
        </mxCell>
        <mxCell id="qivLNx8RzRdKDx-Srp8b-29" value="" style="ellipse;whiteSpace=wrap;html=1;aspect=fixed;fillColor=#000000;" parent="1" vertex="1">
          <mxGeometry x="550" y="580" width="20" height="20" as="geometry" />
        </mxCell>
        <mxCell id="qivLNx8RzRdKDx-Srp8b-30" value="" style="ellipse;whiteSpace=wrap;html=1;aspect=fixed;fillColor=#000000;" parent="1" vertex="1">
          <mxGeometry x="580" y="580" width="20" height="20" as="geometry" />
        </mxCell>
        <mxCell id="qivLNx8RzRdKDx-Srp8b-31" value="" style="ellipse;whiteSpace=wrap;html=1;aspect=fixed;fillColor=#000000;" parent="1" vertex="1">
          <mxGeometry x="610" y="580" width="20" height="20" as="geometry" />
        </mxCell>
        <mxCell id="qivLNx8RzRdKDx-Srp8b-32" value="" style="ellipse;whiteSpace=wrap;html=1;aspect=fixed;fillColor=#000000;" parent="1" vertex="1">
          <mxGeometry x="640" y="580" width="20" height="20" as="geometry" />
        </mxCell>
        <mxCell id="qivLNx8RzRdKDx-Srp8b-34" value="&lt;font color=&quot;#a1a1a1&quot;&gt;Application/&lt;br&gt;Service/&lt;br&gt;System&lt;/font&gt;" style="text;html=1;strokeColor=none;fillColor=none;align=center;verticalAlign=middle;whiteSpace=wrap;rounded=0;fontColor=#FCFCFC;" parent="1" vertex="1">
          <mxGeometry x="680" y="545" width="80" height="40" as="geometry" />
        </mxCell>
        <mxCell id="qivLNx8RzRdKDx-Srp8b-37" value="" style="endArrow=none;html=1;fontColor=#FCFCFC;" parent="1" edge="1">
          <mxGeometry width="50" height="50" relative="1" as="geometry">
            <mxPoint x="660" y="590" as="sourcePoint" />
            <mxPoint x="690" y="570" as="targetPoint" />
          </mxGeometry>
        </mxCell>
        <mxCell id="qivLNx8RzRdKDx-Srp8b-38" value="IB Team" style="rounded=1;whiteSpace=wrap;html=1;verticalAlign=top;strokeColor=#2D7600;fontColor=#ffffff;fillColor=#B3B3B3;" parent="1" vertex="1">
          <mxGeometry x="597.5" y="665" width="80" height="60" as="geometry" />
        </mxCell>
        <mxCell id="qivLNx8RzRdKDx-Srp8b-39" value="" style="ellipse;whiteSpace=wrap;html=1;aspect=fixed;fillColor=#000000;" parent="1" vertex="1">
          <mxGeometry x="610" y="700" width="20" height="20" as="geometry" />
        </mxCell>
        <mxCell id="qivLNx8RzRdKDx-Srp8b-40" value="" style="ellipse;whiteSpace=wrap;html=1;aspect=fixed;fillColor=#000000;" parent="1" vertex="1">
          <mxGeometry x="640" y="700" width="20" height="20" as="geometry" />
        </mxCell>
        <mxCell id="qivLNx8RzRdKDx-Srp8b-41" value="" style="endArrow=none;html=1;fontColor=#FCFCFC;exitX=1;exitY=0.5;exitDx=0;exitDy=0;" parent="1" source="qivLNx8RzRdKDx-Srp8b-40" edge="1">
          <mxGeometry width="50" height="50" relative="1" as="geometry">
            <mxPoint x="400" y="690" as="sourcePoint" />
            <mxPoint x="710" y="590" as="targetPoint" />
          </mxGeometry>
        </mxCell>
        <mxCell id="qivLNx8RzRdKDx-Srp8b-49" value="" style="endArrow=none;html=1;fontColor=#FCFCFC;entryX=0;entryY=0.75;entryDx=0;entryDy=0;" parent="1" target="qivLNx8RzRdKDx-Srp8b-7" edge="1">
          <mxGeometry width="50" height="50" relative="1" as="geometry">
            <mxPoint x="90" y="630" as="sourcePoint" />
            <mxPoint x="450" y="640" as="targetPoint" />
          </mxGeometry>
        </mxCell>
        <mxCell id="qivLNx8RzRdKDx-Srp8b-50" value="" style="endArrow=none;html=1;fontColor=#FCFCFC;exitX=0;exitY=0.5;exitDx=0;exitDy=0;" parent="1" source="qivLNx8RzRdKDx-Srp8b-42" edge="1">
          <mxGeometry width="50" height="50" relative="1" as="geometry">
            <mxPoint x="400" y="690" as="sourcePoint" />
            <mxPoint x="100" y="650" as="targetPoint" />
          </mxGeometry>
        </mxCell>
        <mxCell id="qivLNx8RzRdKDx-Srp8b-51" value="" style="endArrow=none;html=1;fontColor=#FCFCFC;exitX=0;exitY=0.75;exitDx=0;exitDy=0;" parent="1" source="qivLNx8RzRdKDx-Srp8b-8" edge="1">
          <mxGeometry width="50" height="50" relative="1" as="geometry">
            <mxPoint x="400" y="690" as="sourcePoint" />
            <mxPoint x="120" y="630" as="targetPoint" />
          </mxGeometry>
        </mxCell>
        <mxCell id="qivLNx8RzRdKDx-Srp8b-52" value="&lt;font color=&quot;#000000&quot;&gt;Portfolio&lt;/font&gt;" style="text;html=1;strokeColor=none;fillColor=none;align=center;verticalAlign=middle;whiteSpace=wrap;rounded=0;fontColor=#FCFCFC;" parent="1" vertex="1">
          <mxGeometry x="60" y="630" width="50" height="20" as="geometry" />
        </mxCell>
        <mxCell id="qivLNx8RzRdKDx-Srp8b-61" value="OpenShift Team" style="rounded=1;whiteSpace=wrap;html=1;strokeColor=#2D7600;verticalAlign=top;fontColor=#FCFCFC;fillColor=#00CCCC;" parent="1" vertex="1">
          <mxGeometry x="150" y="924" width="100" height="60" as="geometry" />
        </mxCell>
        <mxCell id="qivLNx8RzRdKDx-Srp8b-59" style="edgeStyle=none;rounded=0;orthogonalLoop=1;jettySize=auto;html=1;exitX=0;exitY=0.5;exitDx=0;exitDy=0;fontColor=#FCFCFC;" parent="1" edge="1">
          <mxGeometry relative="1" as="geometry">
            <mxPoint x="320" y="970" as="sourcePoint" />
            <mxPoint x="320" y="970" as="targetPoint" />
          </mxGeometry>
        </mxCell>
        <mxCell id="qivLNx8RzRdKDx-Srp8b-60" value="" style="rounded=0;whiteSpace=wrap;html=1;align=left;" parent="1" vertex="1">
          <mxGeometry x="120" y="1020" width="650" height="90" as="geometry" />
        </mxCell>
        <mxCell id="qivLNx8RzRdKDx-Srp8b-64" value="Data Insights Infrastructure team" style="rounded=1;whiteSpace=wrap;html=1;strokeColor=#2D7600;verticalAlign=top;fontColor=#FCFCFC;fillColor=#00CCCC;" parent="1" vertex="1">
          <mxGeometry x="280" y="924" width="120" height="60" as="geometry" />
        </mxCell>
        <mxCell id="qivLNx8RzRdKDx-Srp8b-65" value="" style="ellipse;whiteSpace=wrap;html=1;aspect=fixed;fillColor=#000000;" parent="1" vertex="1">
          <mxGeometry x="170" y="960" width="20" height="20" as="geometry" />
        </mxCell>
        <mxCell id="qivLNx8RzRdKDx-Srp8b-66" value="" style="ellipse;whiteSpace=wrap;html=1;aspect=fixed;fillColor=#000000;" parent="1" vertex="1">
          <mxGeometry x="210" y="960" width="20" height="20" as="geometry" />
        </mxCell>
        <mxCell id="qivLNx8RzRdKDx-Srp8b-69" value="" style="ellipse;whiteSpace=wrap;html=1;aspect=fixed;fillColor=#000000;" parent="1" vertex="1">
          <mxGeometry x="315" y="960" width="20" height="20" as="geometry" />
        </mxCell>
        <mxCell id="qivLNx8RzRdKDx-Srp8b-70" value="" style="ellipse;whiteSpace=wrap;html=1;aspect=fixed;fillColor=#000000;" parent="1" vertex="1">
          <mxGeometry x="345" y="960" width="20" height="20" as="geometry" />
        </mxCell>
        <mxCell id="qivLNx8RzRdKDx-Srp8b-80" value="" style="ellipse;whiteSpace=wrap;html=1;aspect=fixed;fillColor=#000000;" parent="1" vertex="1">
          <mxGeometry x="597.5" y="845" width="20" height="20" as="geometry" />
        </mxCell>
        <mxCell id="qivLNx8RzRdKDx-Srp8b-81" value="" style="group" parent="1" vertex="1" connectable="0">
          <mxGeometry x="120" y="760" width="450" height="110" as="geometry" />
        </mxCell>
        <mxCell id="qivLNx8RzRdKDx-Srp8b-71" value="" style="rounded=0;whiteSpace=wrap;html=1;align=left;" parent="qivLNx8RzRdKDx-Srp8b-81" vertex="1">
          <mxGeometry width="450" height="110" as="geometry" />
        </mxCell>
        <mxCell id="qivLNx8RzRdKDx-Srp8b-74" value="Tier-3 (System API Platform Composed of Business process-independent, Data Access Capabilities)" style="text;html=1;strokeColor=none;fillColor=none;align=left;verticalAlign=middle;whiteSpace=wrap;rounded=0;fontStyle=1" parent="qivLNx8RzRdKDx-Srp8b-81" vertex="1">
          <mxGeometry width="440" height="30" as="geometry" />
        </mxCell>
        <mxCell id="qivLNx8RzRdKDx-Srp8b-75" value="Integration Team" style="rounded=1;whiteSpace=wrap;html=1;strokeColor=#2D7600;verticalAlign=top;fontColor=#FCFCFC;fillColor=#CCCC00;" parent="qivLNx8RzRdKDx-Srp8b-81" vertex="1">
          <mxGeometry x="20" y="40" width="100" height="60" as="geometry" />
        </mxCell>
        <mxCell id="qivLNx8RzRdKDx-Srp8b-76" value="" style="ellipse;whiteSpace=wrap;html=1;aspect=fixed;fillColor=#000000;" parent="qivLNx8RzRdKDx-Srp8b-81" vertex="1">
          <mxGeometry x="40" y="75" width="20" height="20" as="geometry" />
        </mxCell>
        <mxCell id="qivLNx8RzRdKDx-Srp8b-77" value="" style="ellipse;whiteSpace=wrap;html=1;aspect=fixed;fillColor=#000000;" parent="qivLNx8RzRdKDx-Srp8b-81" vertex="1">
          <mxGeometry x="70" y="75" width="20" height="20" as="geometry" />
        </mxCell>
        <mxCell id="qivLNx8RzRdKDx-Srp8b-97" value="API Gateway Team" style="rounded=1;whiteSpace=wrap;html=1;strokeColor=#2D7600;verticalAlign=top;fontColor=#FCFCFC;fillColor=#CCCC00;" parent="qivLNx8RzRdKDx-Srp8b-81" vertex="1">
          <mxGeometry x="140" y="40" width="120" height="60" as="geometry" />
        </mxCell>
        <mxCell id="qivLNx8RzRdKDx-Srp8b-98" value="" style="ellipse;whiteSpace=wrap;html=1;aspect=fixed;fillColor=#000000;" parent="qivLNx8RzRdKDx-Srp8b-81" vertex="1">
          <mxGeometry x="150" y="75" width="20" height="20" as="geometry" />
        </mxCell>
        <mxCell id="qivLNx8RzRdKDx-Srp8b-100" value="" style="ellipse;whiteSpace=wrap;html=1;aspect=fixed;fillColor=#000000;" parent="qivLNx8RzRdKDx-Srp8b-81" vertex="1">
          <mxGeometry x="180" y="75" width="20" height="20" as="geometry" />
        </mxCell>
        <mxCell id="qivLNx8RzRdKDx-Srp8b-110" value="" style="ellipse;whiteSpace=wrap;html=1;aspect=fixed;fillColor=#000000;" parent="qivLNx8RzRdKDx-Srp8b-81" vertex="1">
          <mxGeometry x="215" y="75" width="20" height="20" as="geometry" />
        </mxCell>
        <mxCell id="qivLNx8RzRdKDx-Srp8b-88" value="" style="group" parent="1" vertex="1" connectable="0">
          <mxGeometry x="370" y="665" width="80" height="60" as="geometry" />
        </mxCell>
        <mxCell id="qivLNx8RzRdKDx-Srp8b-89" value="CSP Team" style="rounded=1;whiteSpace=wrap;html=1;verticalAlign=top;strokeColor=#2D7600;fontColor=#ffffff;fillColor=#76E055;" parent="qivLNx8RzRdKDx-Srp8b-88" vertex="1">
          <mxGeometry width="80" height="60" as="geometry" />
        </mxCell>
        <mxCell id="qivLNx8RzRdKDx-Srp8b-90" value="" style="ellipse;whiteSpace=wrap;html=1;aspect=fixed;fillColor=#000000;" parent="qivLNx8RzRdKDx-Srp8b-88" vertex="1">
          <mxGeometry x="10" y="35" width="20" height="20" as="geometry" />
        </mxCell>
        <mxCell id="qivLNx8RzRdKDx-Srp8b-91" value="" style="ellipse;whiteSpace=wrap;html=1;aspect=fixed;fillColor=#000000;" parent="qivLNx8RzRdKDx-Srp8b-88" vertex="1">
          <mxGeometry x="40" y="35" width="20" height="20" as="geometry" />
        </mxCell>
        <mxCell id="qivLNx8RzRdKDx-Srp8b-93" value="&lt;b&gt;&lt;font color=&quot;#000000&quot;&gt;E&lt;br&gt;N&lt;br&gt;T&lt;br&gt;E&lt;br&gt;R&lt;br&gt;P&lt;br&gt;R&lt;br&gt;I&lt;br&gt;S&lt;br&gt;E&lt;br&gt;&amp;nbsp;&lt;br&gt;A&lt;br&gt;R&lt;br&gt;C&lt;br&gt;H&lt;br&gt;I&lt;br&gt;T&lt;br&gt;E&lt;br&gt;C&lt;br&gt;T&lt;br&gt;U&lt;br&gt;R&lt;br&gt;&lt;div style=&quot;&quot;&gt;&lt;b style=&quot;color: rgb(252 , 252 , 252)&quot;&gt;&lt;font color=&quot;#000000&quot;&gt;E&lt;/font&gt;&lt;/b&gt;&lt;/div&gt;&lt;/font&gt;&lt;/b&gt;" style="rounded=0;whiteSpace=wrap;html=1;fontColor=#FCFCFC;align=center;verticalAlign=middle;fillColor=#E6E6E6;strokeColor=#E6E6E6;" parent="1" vertex="1">
          <mxGeometry x="790" y="520" width="30" height="590" as="geometry" />
        </mxCell>
        <mxCell id="qivLNx8RzRdKDx-Srp8b-94" value="" style="ellipse;whiteSpace=wrap;html=1;aspect=fixed;fillColor=#000000;" parent="1" vertex="1">
          <mxGeometry x="600" y="840" width="20" height="20" as="geometry" />
        </mxCell>
        <mxCell id="qivLNx8RzRdKDx-Srp8b-96" value="Tier-1 (Base infrastructure)" style="text;html=1;strokeColor=none;fillColor=none;align=left;verticalAlign=middle;whiteSpace=wrap;rounded=0;fontStyle=1" parent="1" vertex="1">
          <mxGeometry x="120" y="1020" width="170" height="20" as="geometry" />
        </mxCell>
        <mxCell id="qivLNx8RzRdKDx-Srp8b-85" value="CSP Team" style="rounded=1;whiteSpace=wrap;html=1;strokeColor=#2D7600;verticalAlign=top;fontColor=#FCFCFC;fillColor=#76E055;" parent="1" vertex="1">
          <mxGeometry x="260" y="665" width="80" height="60" as="geometry" />
        </mxCell>
        <mxCell id="qivLNx8RzRdKDx-Srp8b-86" value="" style="ellipse;whiteSpace=wrap;html=1;aspect=fixed;fillColor=#000000;" parent="1" vertex="1">
          <mxGeometry x="270" y="700" width="20" height="20" as="geometry" />
        </mxCell>
        <mxCell id="qivLNx8RzRdKDx-Srp8b-87" value="" style="ellipse;whiteSpace=wrap;html=1;aspect=fixed;fillColor=#000000;" parent="1" vertex="1">
          <mxGeometry x="310" y="700" width="20" height="20" as="geometry" />
        </mxCell>
        <mxCell id="qivLNx8RzRdKDx-Srp8b-42" value="CSP Team" style="rounded=1;whiteSpace=wrap;html=1;strokeColor=#2D7600;verticalAlign=top;fontColor=#FCFCFC;fillColor=#76E055;" parent="1" vertex="1">
          <mxGeometry x="150" y="665" width="80" height="60" as="geometry" />
        </mxCell>
        <mxCell id="qivLNx8RzRdKDx-Srp8b-43" value="" style="ellipse;whiteSpace=wrap;html=1;aspect=fixed;fillColor=#000000;" parent="1" vertex="1">
          <mxGeometry x="160" y="700" width="20" height="20" as="geometry" />
        </mxCell>
        <mxCell id="qivLNx8RzRdKDx-Srp8b-44" value="" style="ellipse;whiteSpace=wrap;html=1;aspect=fixed;fillColor=#000000;" parent="1" vertex="1">
          <mxGeometry x="190" y="700" width="20" height="20" as="geometry" />
        </mxCell>
        <mxCell id="qivLNx8RzRdKDx-Srp8b-72" value="" style="rounded=0;whiteSpace=wrap;html=1;align=left;" parent="1" vertex="1">
          <mxGeometry x="580" y="760" width="190" height="110" as="geometry" />
        </mxCell>
        <mxCell id="qivLNx8RzRdKDx-Srp8b-78" value="Tier-3B (Legacy)" style="text;html=1;strokeColor=none;fillColor=none;align=center;verticalAlign=middle;whiteSpace=wrap;rounded=0;fontStyle=1" parent="1" vertex="1">
          <mxGeometry x="580" y="760" width="115" height="20" as="geometry" />
        </mxCell>
        <mxCell id="qivLNx8RzRdKDx-Srp8b-79" value="Integration Team" style="rounded=1;whiteSpace=wrap;html=1;strokeColor=#2D7600;verticalAlign=top;fontColor=#FCFCFC;fillColor=#B3B3B3;" parent="1" vertex="1">
          <mxGeometry x="590" y="802" width="80" height="60" as="geometry" />
        </mxCell>
        <mxCell id="qivLNx8RzRdKDx-Srp8b-95" value="" style="ellipse;whiteSpace=wrap;html=1;aspect=fixed;fillColor=#000000;" parent="1" vertex="1">
          <mxGeometry x="635" y="838" width="20" height="20" as="geometry" />
        </mxCell>
        <mxCell id="qivLNx8RzRdKDx-Srp8b-106" value="Older generation capabilities" style="rounded=1;whiteSpace=wrap;html=1;strokeColor=#2D7600;verticalAlign=top;fontColor=#FCFCFC;fillColor=#B3B3B3;" parent="1" vertex="1">
          <mxGeometry x="597.5" y="924" width="122.5" height="60" as="geometry" />
        </mxCell>
        <mxCell id="qivLNx8RzRdKDx-Srp8b-107" value="" style="ellipse;whiteSpace=wrap;html=1;aspect=fixed;fillColor=#000000;" parent="1" vertex="1">
          <mxGeometry x="635" y="959" width="20" height="20" as="geometry" />
        </mxCell>
        <mxCell id="qivLNx8RzRdKDx-Srp8b-108" value="" style="ellipse;whiteSpace=wrap;html=1;aspect=fixed;fillColor=#000000;" parent="1" vertex="1">
          <mxGeometry x="600" y="838" width="20" height="20" as="geometry" />
        </mxCell>
        <mxCell id="qivLNx8RzRdKDx-Srp8b-109" value="" style="ellipse;whiteSpace=wrap;html=1;aspect=fixed;fillColor=#000000;" parent="1" vertex="1">
          <mxGeometry x="665" y="960" width="20" height="20" as="geometry" />
        </mxCell>
        <mxCell id="qivLNx8RzRdKDx-Srp8b-111" value="Network Team" style="rounded=1;whiteSpace=wrap;html=1;strokeColor=#2D7600;verticalAlign=top;fontColor=#FCFCFC;fillColor=#0000FF;" parent="1" vertex="1">
          <mxGeometry x="150" y="1046" width="100" height="60" as="geometry" />
        </mxCell>
        <mxCell id="qivLNx8RzRdKDx-Srp8b-112" value="" style="ellipse;whiteSpace=wrap;html=1;aspect=fixed;fillColor=#000000;" parent="1" vertex="1">
          <mxGeometry x="170" y="1083" width="20" height="20" as="geometry" />
        </mxCell>
        <mxCell id="qivLNx8RzRdKDx-Srp8b-113" value="" style="ellipse;whiteSpace=wrap;html=1;aspect=fixed;fillColor=#000000;" parent="1" vertex="1">
          <mxGeometry x="200" y="1083" width="20" height="20" as="geometry" />
        </mxCell>
        <mxCell id="QVIxd3WqbkuiLf7Jd8TW-3" value="Text" style="text;html=1;strokeColor=none;fillColor=none;align=center;verticalAlign=middle;whiteSpace=wrap;rounded=0;fontColor=#FCFCFC;" vertex="1" parent="1">
          <mxGeometry x="400" y="780" width="40" height="20" as="geometry" />
        </mxCell>
        <mxCell id="QVIxd3WqbkuiLf7Jd8TW-4" value="&lt;font color=&quot;#000000&quot;&gt;Ownership&lt;/font&gt;" style="text;html=1;strokeColor=none;fillColor=none;align=center;verticalAlign=middle;whiteSpace=wrap;rounded=0;fontColor=#FCFCFC;fontStyle=1" vertex="1" parent="1">
          <mxGeometry x="-40" y="580" width="40" height="20" as="geometry" />
        </mxCell>
        <mxCell id="QVIxd3WqbkuiLf7Jd8TW-5" value="&lt;font color=&quot;#000000&quot;&gt;API Management&lt;/font&gt;" style="text;html=1;strokeColor=none;fillColor=none;align=center;verticalAlign=middle;whiteSpace=wrap;rounded=0;fontColor=#FCFCFC;fontStyle=1" vertex="1" parent="1">
          <mxGeometry x="-80" y="610" width="120" height="20" as="geometry" />
        </mxCell>
        <mxCell id="QVIxd3WqbkuiLf7Jd8TW-6" value="&lt;font color=&quot;#000000&quot;&gt;Security&lt;/font&gt;" style="text;html=1;strokeColor=none;fillColor=none;align=center;verticalAlign=middle;whiteSpace=wrap;rounded=0;fontColor=#FCFCFC;fontStyle=1" vertex="1" parent="1">
          <mxGeometry x="-80" y="640" width="120" height="20" as="geometry" />
        </mxCell>
        <mxCell id="QVIxd3WqbkuiLf7Jd8TW-8" value="" style="rounded=1;whiteSpace=wrap;html=1;fontColor=#FCFCFC;strokeColor=#E6E6E6;fillColor=#B3B3B3;gradientColor=none;align=left;verticalAlign=middle;" vertex="1" parent="1">
          <mxGeometry x="130" y="1490" width="120" height="60" as="geometry" />
        </mxCell>
        <mxCell id="QVIxd3WqbkuiLf7Jd8TW-13" value="&lt;b&gt;&lt;font color=&quot;#000000&quot;&gt;Product&lt;/font&gt;&lt;/b&gt;" style="text;html=1;strokeColor=none;fillColor=none;align=center;verticalAlign=middle;whiteSpace=wrap;rounded=0;fontColor=#FCFCFC;" vertex="1" parent="1">
          <mxGeometry x="160" y="450" width="40" height="20" as="geometry" />
        </mxCell>
        <mxCell id="QVIxd3WqbkuiLf7Jd8TW-14" value="&lt;b&gt;&lt;font color=&quot;#000000&quot;&gt;- Unlock business value&lt;/font&gt;&lt;/b&gt;" style="text;html=1;strokeColor=none;fillColor=none;align=left;verticalAlign=middle;whiteSpace=wrap;rounded=0;fontColor=#FCFCFC;" vertex="1" parent="1">
          <mxGeometry x="210" y="430" width="160" height="20" as="geometry" />
        </mxCell>
        <mxCell id="QVIxd3WqbkuiLf7Jd8TW-15" value="&lt;b&gt;&lt;font color=&quot;#000000&quot;&gt;- Iterative on it and deliver value incrementally&lt;/font&gt;&lt;/b&gt;" style="text;html=1;strokeColor=none;fillColor=none;align=left;verticalAlign=middle;whiteSpace=wrap;rounded=0;fontColor=#FCFCFC;" vertex="1" parent="1">
          <mxGeometry x="210" y="450" width="290" height="20" as="geometry" />
        </mxCell>
        <mxCell id="QVIxd3WqbkuiLf7Jd8TW-16" value="&lt;b&gt;&lt;font color=&quot;#000000&quot;&gt;- Has it&#39;s own lifecycle&lt;/font&gt;&lt;/b&gt;" style="text;html=1;strokeColor=none;fillColor=none;align=left;verticalAlign=middle;whiteSpace=wrap;rounded=0;fontColor=#FCFCFC;" vertex="1" parent="1">
          <mxGeometry x="210" y="470" width="290" height="20" as="geometry" />
        </mxCell>
        <mxCell id="QVIxd3WqbkuiLf7Jd8TW-17" value="&lt;b&gt;&lt;font color=&quot;#000000&quot;&gt;Project&lt;/font&gt;&lt;/b&gt;" style="text;html=1;strokeColor=none;fillColor=none;align=center;verticalAlign=middle;whiteSpace=wrap;rounded=0;fontColor=#FCFCFC;" vertex="1" parent="1">
          <mxGeometry x="500" y="450" width="40" height="20" as="geometry" />
        </mxCell>
        <mxCell id="QVIxd3WqbkuiLf7Jd8TW-18" value="&lt;b&gt;&lt;font color=&quot;#000000&quot;&gt;- Building features in pre-defined scope&lt;/font&gt;&lt;/b&gt;" style="text;html=1;strokeColor=none;fillColor=none;align=left;verticalAlign=middle;whiteSpace=wrap;rounded=0;fontColor=#FCFCFC;" vertex="1" parent="1">
          <mxGeometry x="550" y="430" width="260" height="20" as="geometry" />
        </mxCell>
        <mxCell id="QVIxd3WqbkuiLf7Jd8TW-19" value="&lt;b&gt;&lt;font color=&quot;#000000&quot;&gt;- Has an end date&lt;/font&gt;&lt;/b&gt;" style="text;html=1;strokeColor=none;fillColor=none;align=left;verticalAlign=middle;whiteSpace=wrap;rounded=0;fontColor=#FCFCFC;" vertex="1" parent="1">
          <mxGeometry x="550" y="450" width="290" height="20" as="geometry" />
        </mxCell>
        <mxCell id="QVIxd3WqbkuiLf7Jd8TW-20" value="&lt;b&gt;&lt;font color=&quot;#000000&quot;&gt;- When project finish, we walk away&amp;nbsp;&lt;/font&gt;&lt;/b&gt;" style="text;html=1;strokeColor=none;fillColor=none;align=left;verticalAlign=middle;whiteSpace=wrap;rounded=0;fontColor=#FCFCFC;" vertex="1" parent="1">
          <mxGeometry x="550" y="470" width="290" height="20" as="geometry" />
        </mxCell>
        <mxCell id="QVIxd3WqbkuiLf7Jd8TW-21" value="Text" style="text;html=1;strokeColor=none;fillColor=none;align=center;verticalAlign=middle;whiteSpace=wrap;rounded=0;fontColor=#FCFCFC;" vertex="1" parent="1">
          <mxGeometry x="370" y="650" width="40" height="20" as="geometry" />
        </mxCell>
      </root>
    </mxGraphModel>
  </diagram>
</mxfile>
